# xmcd CD database file
#
# Track frame offsets:
#	150
#	20408
#	39850
#	67246
#	90394
#	133924
#	168190
#	202262
#	225174
#	251447
#	281911
#	301197
#	327739
#
# Disc length: 4672 seconds
#
# Revision: 7
# Processed by: cddbd v1.5.2PL0 Copyright (c) Steve Scherf et al.
# Submitted via: CDex 1.51
#
DISCID=b4123e0d
DTITLE=Ken Follett - Sturz der Titanen CD07
DYEAR=2010
DGENRE=Hörbuch
TTITLE0=Sturz der Titanen CD07-01
TTITLE1=Sturz der Titanen CD07-02
TTITLE2=Sturz der Titanen CD07-03
TTITLE3=Sturz der Titanen CD07-04
TTITLE4=Sturz der Titanen CD07-05
TTITLE5=Sturz der Titanen CD07-06
TTITLE6=Sturz der Titanen CD07-07
TTITLE7=Sturz der Titanen CD07-08
TTITLE8=Sturz der Titanen CD07-09
TTITLE9=Sturz der Titanen CD07-10
TTITLE10=Sturz der Titanen CD07-11
TTITLE11=Sturz der Titanen CD07-12
TTITLE12=Sturz der Titanen CD07-13
EXTD=YEAR: 2010
EXTT0=
EXTT1=
EXTT2=
EXTT3=
EXTT4=
EXTT5=
EXTT6=
EXTT7=
EXTT8=
EXTT9=
EXTT10=
EXTT11=
EXTT12=
PLAYORDER=
